grf
version=1
nRows=17
nColumns=37
inDegrees=no
endheader
time	ground_force_1_vx	ground_force_1_vy	ground_force_1_vz	ground_force_1_px	ground_force_1_py	ground_force_1_pz	ground_moment_1_mx	ground_moment_1_my	ground_moment_1_mz	ground_force_2_vx	ground_force_2_vy	ground_force_2_vz	ground_force_2_px	ground_force_2_py	ground_force_2_pz	ground_moment_2_mx	ground_moment_2_my	ground_moment_2_mz	ground_force_3_vx	ground_force_3_vy	ground_force_3_vz	ground_force_3_px	ground_force_3_py	ground_force_3_pz	ground_moment_3_mx	ground_moment_3_my	ground_moment_3_mz	ground_force_4_vx	ground_force_4_vy	ground_force_4_vz	ground_force_4_px	ground_force_4_py	ground_force_4_pz	ground_moment_4_mx	ground_moment_4_my	ground_moment_4_mz
      0.00000000	      0.00000000	     -0.00000000	      0.00000000	      0.00000000	      0.00000000	      0.00000000	      0.00000000	      0.00000000	      0.00000000	     -1.58527911	     78.45668030	   -550.70574951	   -350.71688484	  -1088.75261879	      0.00000000	      0.00000000	     -0.00000000	  -1153.71498027	     -9.15746666	    -19.22936550	   -207.21846008	   -384.93575106	   -648.02334307	      0.00000000	      0.00000000	     -0.00000000	  -2011.31521615	    -35.42427305	     15.96768212	     76.24309540	    601.73695276	   -560.11260958	      0.00000000	      0.00000000	      0.00000000	     79.28850118
      0.01000000	      0.00000000	     -0.00000000	      0.00000000	      0.00000000	      0.00000000	      0.00000000	      0.00000000	      0.00000000	      0.00000000	     -1.60463107	     81.42235565	   -570.12872314	   -350.15159573	  -1088.74003759	      0.00000000	      0.00000000	     -0.00000000	   -941.45731013	     -7.33987044	    -16.16160901	   -193.68812561	   -396.07410630	   -651.56643880	      0.00000000	      0.00000000	     -0.00000000	  -1973.33105106	    -35.26975490	     16.26125835	     75.54146576	    604.74826215	   -563.08004634	      0.00000000	     -0.00000000	     -0.00000000	    -35.00917392
      0.02000000	      0.00000000	     -0.00000000	      0.00000000	      0.00000000	      0.00000000	      0.00000000	      0.00000000	      0.00000000	      0.00000000	     -3.32377815	     83.65116882	   -586.80664062	   -350.30286076	  -1087.69089517	      0.00000000	      0.00000000	     -0.00000000	  -1167.37096035	     -3.94609530	    -11.76657070	   -181.38224792	   -407.34754372	   -654.47596842	      0.00000000	      0.00000000	     -0.00000000	  -1863.56625329	    -35.24663401	     16.30680774	     76.50756836	    600.97188341	   -560.84387749	      0.00000000	      0.00000000	      0.00000000	     20.06196651
      0.03000000	      0.00000000	     -0.00000000	      0.00000000	      0.00000000	      0.00000000	      0.00000000	      0.00000000	      0.00000000	      0.00000000	     -4.10307169	     84.80849457	   -604.29327393	   -349.94766028	  -1088.16132964	      0.00000000	      0.00000000	     -0.00000000	  -1122.01764883	     -1.10852471	     -8.54458418	   -170.29940796	   -417.27340233	   -657.97122894	      0.00000000	      0.00000000	     -0.00000000	  -1804.87290572	    -35.38059857	     16.05981182	     75.80744934	    602.81398768	   -562.78178218	      0.00000000	      0.00000000	     -0.00000000	     -1.18159713
      0.04000000	      0.00000000	     -0.00000000	      0.00000000	      0.00000000	      0.00000000	      0.00000000	      0.00000000	      0.00000000	      0.00000000	     -4.75107956	     84.82959747	   -618.06494141	   -349.59252076	  -1087.87423181	      0.00000000	      0.00000000	     -0.00000000	  -1220.25304132	      0.11077174	     -4.50394250	   -159.65095520	   -425.14200127	   -659.85280881	      0.00000000	      0.00000000	     -0.00000000	  -1596.67629530	    -35.17929318	     16.10456774	     75.36716461	    609.28625954	   -563.46337867	      0.00000000	      0.00000000	     -0.00000000	    -35.89330782
      0.05000000	      0.00000000	     -0.00000000	      0.00000000	      0.00000000	      0.00000000	      0.00000000	      0.00000000	      0.00000000	      0.00000000	     -3.96980977	     85.03041077	   -632.36889648	   -349.68315521	  -1088.23029145	      0.00000000	      0.00000000	     -0.00000000	  -1149.35767672	      0.90899921	     -1.28032263	   -147.60406494	   -435.86578814	   -664.86879799	      0.00000000	      0.00000000	     -0.00000000	  -1436.92825593	    -35.13482143	     16.21702120	     75.98112488	    605.06233133	   -563.08022808	      0.00000000	      0.00000000	      0.00000000	     31.68026776
      0.06000000	      0.00000000	     -0.00000000	      0.00000000	      0.00000000	      0.00000000	      0.00000000	      0.00000000	      0.00000000	      0.00000000	     -3.81370234	     85.14205933	   -644.99353027	   -349.13679071	  -1086.69371513	      0.00000000	      0.00000000	     -0.00000000	  -1030.86134668	      1.44164175	      2.05342447	   -137.04214478	   -443.48893900	   -671.59883144	      0.00000000	      0.00000000	     -0.00000000	  -1217.25919582	    -35.60417414	     16.35131003	     75.27864838	    605.24791294	   -563.77358504	      0.00000000	      0.00000000	      0.00000000	     21.14687704
      0.07000000	      0.00000000	     -0.00000000	      0.00000000	      0.00000000	      0.00000000	      0.00000000	      0.00000000	      0.00000000	      0.00000000	     -4.14772844	     84.98602295	   -657.53094482	   -349.49025632	  -1086.97323899	      0.00000000	      0.00000000	     -0.00000000	  -1278.40077796	      1.39713080	      3.57715642	   -127.17872620	   -448.93948599	   -671.97697043	      0.00000000	      0.00000000	     -0.00000000	  -1021.42463240	    -35.40252162	     16.24086117	     75.63123322	    606.04689702	   -563.61025162	      0.00000000	      0.00000000	     -0.00000000	    -67.97512161
      0.08000000	      0.00000000	     -0.00000000	      0.00000000	      0.00000000	      0.00000000	      0.00000000	      0.00000000	      0.00000000	      0.00000000	     -3.50166678	     85.63249969	   -667.06555176	   -349.88292906	  -1086.74490800	      0.00000000	      0.00000000	     -0.00000000	  -1166.60348830	      0.64377769	      3.70951075	   -119.15241241	   -450.54628904	   -675.32326780	      0.00000000	      0.00000000	     -0.00000000	  -1090.78018772	    -35.22407771	     16.28372500	     75.71716309	    607.13325683	   -562.84541918	      0.00000000	      0.00000000	     -0.00000000	    -57.36729885
      0.09000000	      0.00000000	     -0.00000000	      0.00000000	      0.00000000	      0.00000000	      0.00000000	      0.00000000	      0.00000000	      0.00000000	     -3.96941757	     86.09997559	   -672.45458984	   -349.73639745	  -1086.68898341	      0.00000000	      0.00000000	     -0.00000000	  -1680.81668332	      1.24195133	      3.90842904	   -112.86095428	   -452.08651413	   -669.46704576	      0.00000000	      0.00000000	     -0.00000000	  -1262.64498971	    -35.31346368	     16.50783085	     77.28992462	    598.98362094	   -561.61200472	      0.00000000	      0.00000000	     -0.00000000	    -53.30613657
      0.10000000	      0.00000000	     -0.00000000	      0.00000000	      0.00000000	      0.00000000	      0.00000000	      0.00000000	      0.00000000	      0.00000000	     -4.01683283	     86.52304840	   -675.45428467	   -349.53680570	  -1087.05178445	      0.00000000	      0.00000000	     -0.00000000	  -1344.81520554	      2.72759209	      3.84146571	   -104.74548340	   -454.50485417	   -673.21616690	      0.00000000	      0.00000000	     -0.00000000	  -1392.31132577	    -35.26933530	     16.01459812	     75.80039978	    605.27831146	   -562.08869908	      0.00000000	     -0.00000000	     -0.00000000	   -101.19979620
      0.11000000	      0.00000000	     -0.00000000	      0.00000000	      0.00000000	      0.00000000	      0.00000000	      0.00000000	      0.00000000	      0.00000000	     -5.19688320	     87.30397034	   -674.75903320	   -348.84336241	  -1086.23826105	      0.00000000	      0.00000000	     -0.00000000	  -1470.26178047	      3.99198568	      4.12869943	    -97.93434906	   -453.72109290	   -675.20815352	      0.00000000	      0.00000000	     -0.00000000	  -1573.67459907	    -35.20273068	     16.06041072	     75.55052185	    605.05259462	   -564.02809211	      0.00000000	      0.00000000	      0.00000000	     59.53196895
      0.12000000	      0.00000000	     -0.00000000	      0.00000000	      0.00000000	      0.00000000	      0.00000000	      0.00000000	      0.00000000	      0.00000000	     -6.73625803	     87.81443787	   -675.55694580	   -348.02309871	  -1086.75337840	      0.00000000	      0.00000000	     -0.00000000	  -1649.01259498	      3.99198572	      4.52528728	    -92.77914429	   -453.50036673	   -673.57602319	      0.00000000	      0.00000000	     -0.00000000	  -1380.98877545	    -35.51311734	     16.06053472	     76.58973694	    599.31370714	   -561.86987114	      0.00000000	      0.00000000	      0.00000000	    102.85329060
      0.13000000	      0.00000000	     -0.00000000	      0.00000000	      0.00000000	      0.00000000	      0.00000000	      0.00000000	      0.00000000	      0.00000000	     -8.04792213	     87.50330353	   -673.60430908	   -347.64644053	  -1086.81805913	      0.00000000	     -0.00000000	     -0.00000000	  -1897.91085461	      3.52403390	      4.08355158	    -88.25331116	   -455.22990929	   -673.88539817	      0.00000000	     -0.00000000	     -0.00000000	  -1553.32122796	    -35.38185744	     15.90576863	     76.05875397	    601.63926577	   -561.22146747	      0.00000000	      0.00000000	      0.00000000	    -28.54792798
      0.14000000	      0.00000000	     -0.00000000	      0.00000000	      0.00000000	      0.00000000	      0.00000000	      0.00000000	      0.00000000	      0.00000000	     -7.91247272	     86.99347687	   -672.89825439	   -347.50419841	  -1087.71860108	      0.00000000	      0.00000000	     -0.00000000	  -1767.06141444	      3.06156146	      4.01760170	    -85.11183929	   -455.13220883	   -677.11675811	      0.00000000	      0.00000000	     -0.00000000	  -1544.48691621	    -35.24426891	     16.12765620	     76.25596619	    601.74879979	   -561.72704205	      0.00000000	      0.00000000	      0.00000000	     24.26933638
      0.15000000	      0.00000000	     -0.00000000	      0.00000000	      0.00000000	      0.00000000	      0.00000000	      0.00000000	      0.00000000	      0.00000000	     -7.73840141	     86.90214539	   -667.69152832	   -347.51730259	  -1086.35449380	      0.00000000	      0.00000000	     -0.00000000	  -1713.37473992	      3.43465050	      3.66419762	    -83.44723511	   -456.94850344	   -679.47377412	      0.00000000	      0.00000000	     -0.00000000	  -1581.85374108	    -35.13676692	     16.26135943	     74.86355591	    606.95103480	   -561.65276052	      0.00000000	      0.00000000	     -0.00000000	   -136.98505705
      0.16000000	      0.00000000	     -0.00000000	      0.00000000	      0.00000000	      0.00000000	      0.00000000	      0.00000000	      0.00000000	      0.00000000	     -7.73564863	     86.07433319	   -665.02716064	   -347.38196104	  -1087.18756063	      0.00000000	      0.00000000	     -0.00000000	  -1728.63914576	      3.92609293	      3.44709553	    -81.18279266	   -455.63630520	   -677.49756397	      0.00000000	      0.00000000	      0.00000000	  -1525.17347729	    -35.26971293	     16.34839366	     74.75280762	    610.44059736	   -565.62732044	      0.00000000	      0.00000000	     -0.00000000	   -108.26256151
